<?xml version="1.0" encoding="utf-8"?>
<!-- Generator: Adobe Illustrator 28.3.0, SVG Export Plug-In . SVG Version: 6.00 Build 0)  -->
<svg version="1.1" id="Laag_1" xmlns="http://www.w3.org/2000/svg" xmlns:xlink="http://www.w3.org/1999/xlink" x="0px" y="0px"
	 viewBox="0 0 839.86 1080.96" style="enable-background:new 0 0 839.86 1080.96;" xml:space="preserve">
<style type="text/css">
	.st0{opacity:0.75;fill:#688373;}
	.st1{opacity:0.75;}
	.st2{opacity:0.4;fill:#FFFFFF;}
	.st3{opacity:0.4;fill:none;stroke:#FFFFFF;stroke-width:6;stroke-miterlimit:10;}
	.st4{fill:#688373;}
	.st5{opacity:0.4;fill:#FDFDFD;}
</style>
<rect y="0.96" class="st0" width="840.7" height="1080"/>
<g class="st1">
	<path class="st2" d="M577.69,668.93l37.41-5.87c0,0,52.45-7.01,68.46,44.63l28.51,181.73c0,0,7.14,49.39-48.76,65.46l-39.79,6.24
		L577.69,668.93z"/>
	<line class="st0" x1="607.29" y1="694.71" x2="590.06" y2="697.41"/>
	<circle class="st0" cx="644.14" cy="794.81" r="11.12"/>
	<circle class="st0" cx="624.27" cy="820.44" r="11.12"/>
	<circle class="st0" cx="650.88" cy="838.78" r="11.12"/>
	<circle class="st0" cx="670.89" cy="813.13" r="11.12"/>
	
		<rect x="630.81" y="864.64" transform="matrix(0.9879 -0.155 0.155 0.9879 -127.7227 109.7511)" class="st0" width="18.33" height="18.64"/>
	<circle class="st0" cx="634.46" cy="734.11" r="24.05"/>
	<path class="st2" d="M529.32,749.77l-36.28,13.74c0,0-50.25,20.32-38.79,73.19l65.15,172.03c0,0,18.25,46.44,76.09,32.25
		l38.58-14.61L529.32,749.77z"/>
	<line class="st0" x1="515.78" y1="787.04" x2="532.48" y2="780.72"/>
	
		<ellipse transform="matrix(0.9351 -0.3543 0.3543 0.9351 -256.2354 231.4219)" class="st0" cx="503.79" cy="815.37" rx="11.39" ry="11.12"/>
	
		<ellipse transform="matrix(0.9351 -0.3543 0.3543 0.9351 -258.5948 243.0172)" class="st0" cx="534.27" cy="827.61" rx="11.39" ry="11.12"/>
	
		<ellipse transform="matrix(0.9351 -0.3543 0.3543 0.9351 -269.9259 239.7517)" class="st0" cx="519.69" cy="856.92" rx="11.39" ry="11.12"/>
	
		<ellipse transform="matrix(0.9351 -0.3543 0.3543 0.9351 -267.5952 228.1089)" class="st0" cx="489.06" cy="844.73" rx="11.39" ry="11.12"/>
	
		<ellipse transform="matrix(0.9351 -0.3543 0.3543 0.9351 -288.4941 250.8965)" class="st0" cx="540.83" cy="913.19" rx="24.63" ry="24.05"/>
	<line class="st0" x1="527.29" y1="792.23" x2="520.96" y2="775.53"/>
	
		<ellipse transform="matrix(0.9351 -0.3543 0.3543 0.9351 -302.5837 266.1075)" class="st0" cx="575.32" cy="959.27" rx="11.39" ry="11.12"/>
</g>
<g class="st1">
	<path class="st3" d="M281.96,539.85c4.79-3.4,13-10.26,18.71-21.72c9.84-19.76,5.04-38.76,3.6-43.79
		c-4.71-3.99-13.52-10.33-26.15-13.24c-22.58-5.21-40.84,4.32-45.71,7.06l-81.26,41.62c0,0-29.73,13.76-40.63-9.97
		c1.65-5.44,4.77-13.45,10.9-21.75c6.94-9.4,14.74-15.12,19.82-18.28"/>
	<path class="st2" d="M274.53,545.47c0,0-31-21.31-63.81-9.91c-2.64,0.84-5.56,1.99-8.6,3.59c-8.43,4.43-14.04,10.28-17.44,14.59
		c-4.57,5.17-9.14,10.34-13.71,15.51c0,0,61.44,55.99,108.52,81.27c5.5-7.44,11.01-14.87,16.51-22.31
		c2.61-6.77,5.51-17.14,4.86-29.78C299.33,568.92,279.6,550.05,274.53,545.47z"/>
	<path class="st2" d="M276.01,655.48c-14.02-9.44-28.33-19.52-42.86-30.29c-23.51-17.42-45.21-34.86-65.16-51.97
		c-12.22,16.68-24.45,33.37-36.67,50.05c0,0-19.82,36.67,5.45,69.37c0,0,0.99,11.89,34.19,25.27c0,0,30.23,15.36,71.85-16.85
		L276.01,655.48z"/>
	<line class="st4" x1="274.53" y1="545.47" x2="263.13" y2="559.84"/>
	<line class="st4" x1="222.93" y1="612.52" x2="233.89" y2="599.48"/>
	<path class="st0" d="M263.13,573.22l-13.87,18.14c0,0-4.8,9.61-13.3,4.65c0,0-4.04,0.43-2.06-10.69l14.34-19.54
		c0,0,3.99-6.44,11.92-2.97C260.16,562.81,266.38,568.97,263.13,573.22z"/>
</g>
<g class="st1">
	<path class="st5" d="M474.74,237.7l-39.38,31.73c0,0-32.06,28.28-60.34-3.79c0,0-17.62-21.73-7.59-40.99
		c0,0,26.1-73.14,51.24-108.23c0,0,17.58-43.48,57.58-45.61l16.18-19.94c0,0,4.83-8.41,38.14,2.3c0,0,25.04,11.8,20.64,34.73
		l-6.51,15.52l154.12,64.62c0,0,16.34-29.65,36.26-25.86l28.6,12.64c0,0,19.03,10.59,9.21,37.11c0,0,22.19,21.69,11.38,61.48
		c0,0-20.33,74.91-40.62,113.99c0,0-12.3,41.78-46.14,35.41c0,0-27.47,0.22-34.66-30.83l-7.18-59.07c0,0-31.44,17.46-55.92-14.32
		c0,0-12.64-11.82-8.21-30.17l-39.27-15.16c0,0-25.62,23.8-52.41,9.96C499.88,263.24,478.35,255.51,474.74,237.7z"/>
	<circle class="st0" cx="637.94" cy="274.72" r="28.74"/>
	<circle class="st0" cx="515.98" cy="223.58" r="28.74"/>
	<circle class="st0" cx="517.62" cy="146.86" r="15.42"/>
	<circle class="st0" cx="450.53" cy="118.73" r="15.42"/>
	<circle class="st0" cx="495.17" cy="104.01" r="15.42"/>
	<circle class="st0" cx="471.32" cy="160.88" r="15.42"/>
	<polygon class="st0" points="582.46,164.23 575.72,180.31 558.45,163.97 	"/>
	
		<rect x="633.57" y="186.74" transform="matrix(0.3867 -0.9222 0.9222 0.3867 210.638 714.2452)" class="st0" width="17.43" height="24.05"/>
	<polygon class="st0" points="718.79,230.84 714.09,212.51 694.69,204.38 685.49,226.33 704.34,234.23 	"/>
	<path class="st0" d="M722.83,236.77l5.4,15.11l-7.97,19.01c-7.02-2.94-14.04-5.89-21.07-8.83c2.47-6.42,4.94-12.83,7.42-19.25
		L722.83,236.77z"/>
	<polygon class="st0" points="728.83,230.23 733.53,248.56 752.93,256.7 762.13,234.75 743.28,226.84 	"/>
	<path class="st0" d="M724.79,224.3l-5.4-15.11l7.97-19.01c7.21,3.02,14.41,6.04,21.62,9.07c-2.66,6.34-5.31,12.68-7.97,19.01
		L724.79,224.3z"/>
</g>
</svg>
