<?xml version="1.0" encoding="UTF-8"?><svg id="Laag_5" xmlns="http://www.w3.org/2000/svg" viewBox="0 0 656.22 629.18"><defs><style>.cls-1,.cls-2,.cls-3,.cls-4,.cls-5,.cls-6{stroke-miterlimit:10;}.cls-1,.cls-4,.cls-5{stroke-width:2px;}.cls-1,.cls-4,.cls-6{stroke:#69937e;}.cls-1,.cls-7{fill:#69937e;}.cls-2{stroke:#7daf98;}.cls-2,.cls-8{fill:#7daf98;}.cls-9{fill:#406654;}.cls-9,.cls-10,.cls-11,.cls-8,.cls-7,.cls-12{stroke-width:0px;}.cls-10{fill:#86b59a;}.cls-11{fill:#99c9ad;}.cls-3{fill:#fff;stroke:#1d1d1b;}.cls-4,.cls-6{fill:none;}.cls-5{stroke:#5a8473;}.cls-5,.cls-12{fill:#5a8473;}</style></defs><circle class="cls-3" cx="285.89" cy="332.78" r="250.02"/><path class="cls-12" d="M288.83,69.15c-144.84,0-262.25,117.41-262.25,262.25s117.41,262.25,262.25,262.25,262.25-117.41,262.25-262.25S433.67,69.15,288.83,69.15ZM288.57,563.5c-127.15,0-230.23-103.92-230.23-232.1s103.08-232.1,230.23-232.1,230.24,103.92,230.24,232.1-103.08,232.1-230.24,232.1Z"/><path class="cls-12" d="M101.78,467.21c6.78-7.04,15.84-15.1,27.52-22.55,21.08-13.44,41.36-18.93,54.89-21.36,23,45.98,45.99,91.96,68.99,137.94-17.14-2.83-38.9-8.35-62.31-19.52-46.66-22.28-74.93-55.14-89.09-74.5Z"/><path class="cls-10" d="M149.83,396.58c-12.48,4.8-19.96,11.34-24.28,16.06-4.35,4.75-8.78,11.25-8.3,11.66.36.31,3.4-2.88,3.75-2.57.41.36-3.34,4.84-5.93,8.7-7.39,10.98-9.55,22.97-8.7,23.32.99.41,7.21-12.7,7.71-12.45.37.18-3.59,6.92-5.39,15.61-1.62,7.86-.94,14.77,0,19.66,6.36,9.33,15.47,20.72,28.11,31.92,16.89,14.97,33.69,23.92,45.96,29.23,2.8-3.81,6.9-10.07,10.17-18.56,3.38-8.8,4.76-17.13,5.53-17,.78.13-.29,8.83.2,8.89.5.07,2.51-8.91,3.56-17.79.95-8.09,1.57-19.99-.53-34.95-9.28-20.58-18.56-41.17-27.83-61.75h-24.04Z"/><path class="cls-2" d="M139.28,211.63c-7.52,3.32-28.07,13.59-41.2,37.1-19.19,34.37-6.91,69.11-4.95,74.39,6.61,17.76,14.14,30.25,18.97,36.76,26.1,35.18,61.71,46.62,61.76,46.54.04-.06-19.35-9.93-34.88-29.54,0,0-10.72-13.53-8.29-22.29,1.65-5.94,3.94-8.54,3.94-8.54,1.32-1.49,2.44-2.15,3.16-4.05.68-1.79.39-3.06.24-6.03-.12-2.37.08-4.74.06-7.11-.03-4.15.74-14.05,2.74-22.96,1.5-6.69,4.71-16.96,12.34-28.66-4.63-21.87-9.26-43.73-13.9-65.6Z"/><path class="cls-2" d="M168.36,396.08s-8.63-2.21-13.37-6.96l-11.66-7.8s16.6,20.85,30.53,25.09l-5.5-10.34Z"/><line class="cls-4" x1="333.84" y1="437.25" x2="321.9" y2="407.58"/><path class="cls-9" d="M138.1,328.85c19.52-21.52,39.05-43.05,58.57-64.57,1.04,4.3,2.08,8.6,3.11,12.89-16.31,20.39-32.62,40.78-48.94,61.16-3.94,1.19-7.88,2.37-11.82,3.56-.31-4.35-.62-8.7-.92-13.04Z"/><path class="cls-5" d="M305.38,260.87s39.13-80.63,13.04-126.87c0,0-6-10.6-21.88-17.85-30.3-13.84-65.63-2.92-81.13,2.28-.98.33-1.78.61-2.32.8,0,0-112.84,49.69-74.9,221.95,0,0-7.11-76.15,73.52-123.58,0,0,63.44-42.69,93.67,43.28Z"/><path class="cls-1" d="M337.99,383.59c-4.14,8.38-8.43,14.58-11.56,18.68-1.78,2.32-6.68,8.54-26.98,26.98-5.26,4.78-9.66,8.66-12.65,11.26-2.18,4.92-4.88,12.21-6.32,21.34-.67,4.24-1.96,14.99,3.26,41.2,1.96,9.85,5.03,22.82,9.98,37.84,3.49,7.37,6.98,14.75,10.47,22.12-8.63.48-18.1.62-28.28.16-8.1-.36-15.69-1.05-22.73-1.95-9.4-18.98-18.97-38.06-28.7-57.22-18.61-36.64-37.33-72.62-56.11-107.93,1.19.31,5.64,1.3,10.44-1.04,4.26-2.08,6.22-5.54,6.82-6.71,1.55.51,3.81,1.22,6.54,2.02,37.33,10.91,68.2,9.62,75.28,9.25,29.98-1.6,54.21-9.28,70.55-16.01Z"/><path class="cls-1" d="M149.78,336.95c-2.05.07-6.62.51-10.99,3.66-7.73,5.57-8.25,14.84-8.3,16.11.26-1.25,2.44-10.88,11.67-15.39,6.2-3.03,12.06-2.03,14.02-1.6-2.13-.92-4.27-1.84-6.4-2.77Z"/><path class="cls-4" d="M185.43,387.84s-7.51,18.77-30.43,1.28c0,0-23.52-11.76-24.51-32.41"/><path class="cls-7" d="M149.83,381.32c-.87-.76-2.3-2.2-3.23-4.45-1.53-3.68-.71-7.02-.4-8.1,0,0-6.62-8-5.83-16.7,0,0-4.74,8.89,3.56,18.18-.02,1.18.1,3.3,1.17,5.63,1.43,3.09,3.7,4.77,4.73,5.44Z"/><path class="cls-7" d="M143.33,346.84s9.19-8.6,16.21,12.65c0,0-3.36,9.09,5.73,11.26v7.81s-16.7,1.68-14.72-7.71c0,0,2.17-8.5,6.32-14.13,0,0-11.45-1.37-13.54-9.49"/><path class="cls-4" d="M310.38,271.91c7.05,5.88,17.29,16.09,24.88,31.56,1.84,3.75,10.61,22.27,9.65,47.91-.5,13.39-3.49,24.19-6.03,31.32"/><path class="cls-8" d="M326.06,327.96s-10.15-5.75-17.71-2.66c0,0-19.59,3.31-33.4,15.87,0,0,45.85-1.16,50.79-13.21"/><path class="cls-7" d="M279.69,335.57c3.09-3.92,5.81-7.11,7.86-9.44,6.61-7.52,8.83-9.05,11.51-9.73,3.21-.82,6.12-.18,7.9.4.95-1.22,1.9-1.77,2.72-2.02,2.9-.91,8.18.39,16.06,13.18,0,0-8.7-5.63-17.39-2.66,0,0-18.18,2.69-33.4,15.87,1.58-1.87,3.16-3.73,4.74-5.6Z"/><path class="cls-9" d="M329.69,244.19c.99,2.5,1.98,4.99,2.96,7.49-.63,1.88-.76,3.43-.77,4.5,0,.91.09,1.55.69,5.06.21,1.22.43,2.5.67,3.85.69,3.01.87,5.56.9,7.41.03,2.1.05,3.82-.53,6-.67,2.53-1.8,4.41-2.64,5.58-1.96,1.14-4.48,2.35-7.52,3.27-5.82,1.76-10.92,1.65-14.22,1.3-.48-1.14-.96-2.28-1.44-3.42,3.77.31,6.91.19,9.16,0,4.24-.36,7.32-.65,10.51-2.66,1.56-.98,2.66-2.07,3.33-2.82.42-1.38.93-3.52.9-6.15-.03-2.21-.42-3.53-1.12-7.34-.3-1.59-.7-3.93-1.11-6.82-.41-1.62-1.14-3.92-2.52-6.45-1.31-2.4-2.63-4.82-5.34-6.67-3.21-2.2-6.67-2.42-8.52-2.37-2.52-.56-7.64-.56-13.97.72-7.08,1.43-14.34,5.01-15.08,13.61,1.01,2.59,2.03,5.17,3.04,7.76-2.2-.58-4.4-1.15-6.6-1.73,0,0-1.48-4.15-5.04-2.57l-2.37-9.29s8.89-1.78,13.34-6.23c3.35-1.66,7.53-3.3,12.48-4.36,13.52-2.91,24.93.2,30.8,2.31Z"/><path class="cls-9" d="M304.2,262.25c7.34-5.7,14.67-11.4,22.01-17.09,1.43,2.62,2.87,5.24,4.3,7.86-6.89,6.47-13.78,12.94-20.67,19.41-1.01-1.45-2.05-3.1-3.07-4.94-1.02-1.85-1.87-3.61-2.57-5.24Z"/><path class="cls-9" d="M273.07,252.47c-2.07.23-4.4.37-6.95.31-4.3-.1-8.05-.71-11.09-1.45-4.41-.5-9.38-.73-14.8-.45-15.61.82-28.11,5.58-36.39,9.69-2.4,1.24-4.79,2.47-7.19,3.71,1.04,4.3,2.08,8.6,3.11,12.89.99,1.01,2.4,2.53,3.93,4.52,3.11,4.05,3.29,5.54,5.93,9.71,2.05,3.24,5.26,8.22,10.97,12.15,1.9,1.31,3.62,2.19,4.83,2.76,2.79.34,5.92.51,9.32.37,10.33-.42,18.61-3.54,24.09-6.24,0,0,17.79-9.49,14.23-27.12,0,0-1.93-10.38,2.37-11.56l-1.39-5.43-7.95,3.8s10.18,22.55-2.96,33.35c0,0-19.27,15.86-38.24,7.86,0,0-12.6-8.15-15.86-28.46,0,0-4.3-15.41,30.38-19.86,2.61-.4,6.02-.62,9.94-.07,8.12,1.14,13.87,4.95,16.74,7.18,2.65-1.27,5.3-2.53,7.95-3.8l-.98-3.86Z"/><path class="cls-7" d="M305.31,288.07c-.41-.04-.73.04-.96.15-1.35.63-1.85,3.13-1.26,6.23,0,0,3.85,1.26,2.22-6.37Z"/><path class="cls-7" d="M289.01,298.22c1.11-.73,2.3-1.57,3.53-2.57,1.43-2.01.89-4.67-.8-5.78-1.32-.87-3.24-.73-4.66.42-4.25,2.78-6.41,6.22-5.56,8.3.34.84,1.21,1.56,2.12,1.8.49.13,1.58.28,5.36-2.17Z"/><path class="cls-4" d="M276.53,287.25c-.34.1-5.84,1.75-7.48,7.39-1.56,5.36,1.76,9.55,2.05,9.91.71.72,2.69,2.53,5.83,3.06,4.33.74,7.57-1.52,8.2-1.98"/><path class="cls-4" d="M304.1,284.29c.19-1.2.34-3.19-.2-5.53-.22-.97-.89-3.4-2.67-5.63-1.93-2.42-4.38-3.4-9.19-5.24-1.24-.48-5.23-1.96-11.07-3.06-3.07-.58-5.68-.88-7.6-1.04"/><path class="cls-4" d="M306.68,298.48c3.2-4.28,3.56-9.39,1.19-12.45-1.23-1.59-2.96-2.32-4.22-2.67"/><path class="cls-7" d="M225.64,272.73s6.03-5.53,11.76-2.17c0,0,2.17,2.67.99,5.24l-10.28,2.47s-2.47-1.28-2.47-5.53Z"/><path class="cls-6" d="M236.73,270.65c.98.62,2.12,1.26,3.43,1.85,2,.9,3.85,1.45,5.4,1.79-1.83.39-3.65.78-5.48,1.18"/><path class="cls-6" d="M226.38,272.65c-1.37.74-2.96,1.76-4.59,3.14-2.63,2.22-4.38,4.57-5.51,6.37,2.26-.58,4.53-1.15,6.79-1.73"/><path class="cls-7" d="M286.86,261.12s6.77-5.98,10.52,1.38v3.46s-9.88,1.43-10.52-4.84Z"/><path class="cls-6" d="M296.45,261.72c1.63,1.46,3.25,2.92,4.88,4.38h-2.37"/><path class="cls-12" d="M303.06,563.5c5.12-13.52,10.03-28.32,14.39-44.34,8.2-30.14,12.63-57.95,14.91-82.21-3.01-8.6-6.01-17.2-9.02-25.8,29.11-4.37,55.39-7.52,78.25-9.82,34.92-3.52,52.62-4.16,73.35,3.01,12.01,4.16,21.14,9.59,26.95,13.51-3.87,13.13-11.13,32.2-25.37,51.9-1.96,2.71-9.2,12.57-23.32,26.09-13.74,13.16-36.56,35.02-73.12,50.59-29.5,12.56-56.83,16.31-77.02,17.06Z"/><path class="cls-11" d="M155.33,431.68c-4.88,6.31-10.29,14.35-15.21,24.2-6.11,12.23-9.62,23.52-11.71,32.52,1.43-1.61,2.91-3.43,4.39-5.46,1.87-2.57,3.42-5.05,4.7-7.33-.29,4.06-.65,8.23-1.08,12.48-.46,4.54-.98,8.96-1.54,13.25,2.06-11.02,4.34-20.07,6.16-26.66,2.09-7.54,4-13.33,6.16-19.88,3.15-9.53,6-17.43,8.12-23.12Z"/><path class="cls-11" d="M173.59,422.23s1.71,32.35-4.77,51.43c0,0,15.75-19.25,4.77-51.43Z"/><path class="cls-11" d="M182.46,479.05s-4.74,24.9-16.8,38.73c0,0,3.75-.99,8.4-8.5,0,0-3.26,11.46-8.4,16.6,0,0,19.76-15.61,16.8-46.84Z"/></svg>